<svg width="65" height="57" viewBox="0 0 65 57" fill="none" xmlns="http://www.w3.org/2000/svg">
<path d="M26.0762 1.55469C29.4143 0.500256 31.4498 0.216305 35.4541 0.319336C40.0125 0.681328 42.2921 1.31763 46.0059 3.04004C49.7507 5.21722 51.5525 6.85232 54.1768 9.92383H43.6562C43.8745 9.8269 44.0744 9.73349 44.2539 9.63867C44.7697 9.36619 45.1653 9.07862 45.3779 8.74316C45.4883 8.56898 45.5512 8.37916 45.5527 8.17578C45.5542 7.97442 45.4952 7.78037 45.3955 7.59473C45.201 7.23266 44.8311 6.86714 44.332 6.48047L44.3184 6.4707L44.3037 6.46191L43.8574 6.19434C41.6358 4.88821 39.5979 4.03641 37.3652 3.52539C34.9868 2.98105 32.4006 2.82736 29.1553 2.91309H29.1455L29.1348 2.91406C25.0626 3.29869 22.6274 3.81051 19.5283 5.02246C21.4746 3.52582 23.1584 2.61557 26.0762 1.55469Z" fill="#0000C5" stroke="#0BB8F5" stroke-width="0.6"/>
<path d="M27.3523 12.8955H9.37061L19.4853 29.0459V18.7798H24.5427L33.8457 33.8034L43.3985 18.7798H48.2685V29.7971L58.8203 12.8955H40.0269L33.8457 23.4747L27.3523 12.8955Z" fill="#0BB8F5" stroke="#5192AE"/>
<path d="M24.3555 36.2847V25.54L33.9392 42.1638L43.7108 25.54V36.2847L33.9392 53.5842L24.3555 36.2847Z" fill="url(#paint0_linear_262_100)" stroke="#679B89"/>
<path d="M59.6873 30.8709C59.0339 34.3193 58.3203 36.2518 56.334 39.7409C53.8588 43.5954 52.2207 45.3076 48.9494 47.7729C45.2654 50.0493 42.976 50.8664 39.0371 51.7304L44.0145 42.4407C43.9965 42.6784 43.9837 42.8983 43.982 43.101C43.9774 43.6853 44.0428 44.1705 44.237 44.5172C44.3378 44.6973 44.4751 44.8433 44.6535 44.9411C44.83 45.0379 45.0289 45.0783 45.2393 45.0781C45.6496 45.0777 46.1456 44.9228 46.7214 44.6651L46.7364 44.6577L46.7511 44.6489L47.1988 44.3798C51.7578 41.5927 54.2007 38.5968 57.0377 32.9501L57.0428 32.9406L57.388 32.1061C58.7387 28.7899 59.3677 26.5125 59.7394 23.4497C60.1329 25.8756 60.1357 27.7932 59.6873 30.8709Z" fill="#0000C5" stroke="#0BB8F5" stroke-width="0.6"/>
<path d="M16.5475 46.4658C13.8891 44.1881 12.5698 42.6084 10.5358 39.1508C8.42594 35.0827 7.75564 32.8072 7.24433 28.736C7.10142 24.3998 7.53053 22.0017 8.737 18.1447L14.3097 27.0853C14.1134 26.9521 13.9294 26.8327 13.7551 26.731C13.2515 26.4369 12.7988 26.2528 12.4023 26.2498C12.1965 26.2483 12.0025 26.2949 11.8294 26.4014C11.6578 26.5071 11.5242 26.6613 11.4198 26.8447C11.2167 27.202 11.1042 27.71 11.0417 28.3389L11.0406 28.3557L11.0409 28.3728L11.0516 28.8939C11.1242 31.475 11.4826 33.6593 12.2335 35.8284C13.0335 38.1388 14.2738 40.419 16.066 43.1327L16.0725 43.1413L16.0785 43.1491C18.5613 46.4068 20.2844 48.2059 22.9508 50.198C20.8349 49.4041 19.2581 48.5348 17.1115 46.9018L16.5475 46.4658Z" fill="#0000C5" stroke="#0BB8F5" stroke-width="0.6"/>
<defs>
<linearGradient id="paint0_linear_262_100" x1="34.0331" y1="25.54" x2="34.0905" y2="43.318" gradientUnits="userSpaceOnUse">
<stop stop-color="#0BB8F5"/>
<stop offset="1" stop-color="#3BBC8C"/>
</linearGradient>
</defs>
</svg>
